<svg xmlns="http://www.w3.org/2000/svg" width="174" height="22" viewBox="0 0 174 22"><g transform="translate(-837 -8160)"><g transform="translate(-734 2045)"><g transform="translate(1575.484 5806.368)"><path d="M94.675,320.132a7.528,7.528,0,0,1,2.8-5.881,7.278,7.278,0,0,0-4.58-1.619,7.5,7.5,0,0,0,0,15,7.278,7.278,0,0,0,4.58-1.619A7.528,7.528,0,0,1,94.675,320.132Z" fill="#fff"/><ellipse cx="2.804" cy="5.906" rx="2.804" ry="5.906" transform="translate(94.675 314.226)" fill="#9a9a9a"/><g transform="translate(114.004 315.716)"><path d="M238.008,337.642a1.81,1.81,0,0,0-.61-.4,2.043,2.043,0,0,0-.774-.143,2.92,2.92,0,0,0-.462.038,2.027,2.027,0,0,0-.47.135,1.777,1.777,0,0,0-.438.268,1.608,1.608,0,0,0-.361.432,1.761,1.761,0,0,0-.67-.641,1.975,1.975,0,0,0-.967-.232,2.269,2.269,0,0,0-.378.033,1.752,1.752,0,0,0-.388.115,1.539,1.539,0,0,0-.687.577v-.6h-1.028v4.893h1.038v-2.712a1.46,1.46,0,0,1,.1-.554,1.2,1.2,0,0,1,.265-.406,1.1,1.1,0,0,1,.388-.248,1.33,1.33,0,0,1,.475-.084,1.022,1.022,0,0,1,.813.332,1.4,1.4,0,0,1,.289.95v2.722h1.038v-2.712a1.459,1.459,0,0,1,.1-.554,1.193,1.193,0,0,1,.265-.406,1.1,1.1,0,0,1,.388-.248,1.328,1.328,0,0,1,.475-.084,1.021,1.021,0,0,1,.813.332,1.4,1.4,0,0,1,.289.95v2.722h1.038v-3.075a2.126,2.126,0,0,0-.141-.787A1.793,1.793,0,0,0,238.008,337.642Z" transform="translate(-230.776 -335.237)" fill="#fff"/><path d="M278.714,337.818a1.917,1.917,0,0,0-.633-.524,1.937,1.937,0,0,0-.9-.2,2.385,2.385,0,0,0-1.737.725,2.475,2.475,0,0,0-.521.815,2.926,2.926,0,0,0,0,2.069,2.473,2.473,0,0,0,.521.815,2.385,2.385,0,0,0,1.737.725,1.957,1.957,0,0,0,.9-.194,1.889,1.889,0,0,0,.633-.521v.587h1.068v-4.893h-1.068Zm-.041,2.477a1.487,1.487,0,0,1-.3.5,1.4,1.4,0,0,1-.465.33,1.589,1.589,0,0,1-1.223-.005,1.378,1.378,0,0,1-.462-.337,1.492,1.492,0,0,1-.291-.5,1.859,1.859,0,0,1,0-1.216,1.493,1.493,0,0,1,.291-.5,1.378,1.378,0,0,1,.462-.337,1.586,1.586,0,0,1,1.223-.005,1.4,1.4,0,0,1,.465.329,1.49,1.49,0,0,1,.3.5,1.865,1.865,0,0,1,0,1.246Z" transform="translate(-266.007 -335.237)" fill="#fff"/><path d="M309.253,339.686a2.64,2.64,0,0,0-1.251-.467l-.506-.077q-.169-.026-.317-.059a1.033,1.033,0,0,1-.255-.089.489.489,0,0,1-.171-.143.351.351,0,0,1-.064-.215.487.487,0,0,1,.243-.421,1.226,1.226,0,0,1,.682-.161,2.5,2.5,0,0,1,.452.041,3.712,3.712,0,0,1,.421.1,3.051,3.051,0,0,1,.363.135,2.977,2.977,0,0,1,.276.14l.46-.833a3.149,3.149,0,0,0-.894-.38,4.23,4.23,0,0,0-1.088-.135,2.983,2.983,0,0,0-.843.11,1.93,1.93,0,0,0-.636.312,1.357,1.357,0,0,0-.4.493,1.482,1.482,0,0,0-.141.654,1.206,1.206,0,0,0,.421.958,2.353,2.353,0,0,0,1.239.478l.511.066a1.608,1.608,0,0,1,.644.2.4.4,0,0,1,.2.345.488.488,0,0,1-.281.437,1.714,1.714,0,0,1-.833.161,3.2,3.2,0,0,1-.539-.041,2.7,2.7,0,0,1-.434-.11,2.118,2.118,0,0,1-.353-.158,2.594,2.594,0,0,1-.289-.191l-.5.8a2.629,2.629,0,0,0,.557.322,3.824,3.824,0,0,0,.572.192,3.6,3.6,0,0,0,.531.092q.25.023.439.023a3.468,3.468,0,0,0,.942-.117,2.118,2.118,0,0,0,.7-.329,1.46,1.46,0,0,0,.434-.506,1.4,1.4,0,0,0,.151-.646A1.169,1.169,0,0,0,309.253,339.686Z" transform="translate(-290.571 -335.257)" fill="#fff"/><path d="M358.7,337.81a2.094,2.094,0,0,0-.731-.526,2.315,2.315,0,0,0-.937-.186,2.543,2.543,0,0,0-.988.186,2.225,2.225,0,0,0-.769.526,2.4,2.4,0,0,0-.5.815,2.953,2.953,0,0,0-.179,1.047,2.906,2.906,0,0,0,.184,1.057,2.35,2.35,0,0,0,.516.812,2.291,2.291,0,0,0,.792.521,2.7,2.7,0,0,0,1.011.184,3.617,3.617,0,0,0,1.06-.153,2.664,2.664,0,0,0,.953-.536l-.531-.761a2.387,2.387,0,0,1-.677.381,2.136,2.136,0,0,1-.738.135,1.737,1.737,0,0,1-.5-.072,1.311,1.311,0,0,1-.434-.222,1.338,1.338,0,0,1-.332-.386,1.593,1.593,0,0,1-.189-.567h3.617q.01-.092.015-.194t.005-.2a3.046,3.046,0,0,0-.171-1.044A2.46,2.46,0,0,0,358.7,337.81Zm-2.986,1.443a1.821,1.821,0,0,1,.143-.488,1.311,1.311,0,0,1,.263-.383,1.1,1.1,0,0,1,.383-.248,1.387,1.387,0,0,1,.508-.087,1.137,1.137,0,0,1,.833.317,1.528,1.528,0,0,1,.409.889Z" transform="translate(-330.024 -335.237)" fill="#fff"/><path d="M430.653,337.818a1.915,1.915,0,0,0-.633-.524,1.938,1.938,0,0,0-.9-.2,2.386,2.386,0,0,0-1.737.725,2.474,2.474,0,0,0-.521.815,2.923,2.923,0,0,0,0,2.069,2.472,2.472,0,0,0,.521.815,2.386,2.386,0,0,0,1.737.725,1.958,1.958,0,0,0,.9-.194,1.886,1.886,0,0,0,.633-.521v.587h1.068v-4.893h-1.068Zm-.041,2.477a1.49,1.49,0,0,1-.3.5,1.4,1.4,0,0,1-.465.33,1.589,1.589,0,0,1-1.223-.005,1.381,1.381,0,0,1-.462-.337,1.491,1.491,0,0,1-.291-.5,1.859,1.859,0,0,1,0-1.216,1.492,1.492,0,0,1,.291-.5,1.382,1.382,0,0,1,.462-.337,1.586,1.586,0,0,1,1.223-.005,1.4,1.4,0,0,1,.465.329,1.492,1.492,0,0,1,.3.5,1.865,1.865,0,0,1,0,1.246Z" transform="translate(-387.792 -335.237)" fill="#fff"/><path d="M334.516,335.676a1.438,1.438,0,0,1-.508.1.88.88,0,0,1-.3-.051.629.629,0,0,1-.245-.161.779.779,0,0,1-.166-.283,1.263,1.263,0,0,1-.061-.419v-2.13h1.715v-.971h-1.715v-1.481h-1.073v1.481h-.976v.971h.976v2.15a1.961,1.961,0,0,0,.462,1.438,1.75,1.75,0,0,0,1.295.462,2.307,2.307,0,0,0,.835-.143,3.517,3.517,0,0,0,.456-.214l-.365-.894A2.693,2.693,0,0,1,334.516,335.676Z" transform="translate(-311.256 -329.769)" fill="#fff"/><path d="M386.893,337.1a1.957,1.957,0,0,0-.812.163,1.728,1.728,0,0,0-.608.606v-.642H384.5v4.893h.98v-2.692a1.661,1.661,0,0,1,.087-.557,1.2,1.2,0,0,1,.24-.414,1,1,0,0,1,.368-.255,1.243,1.243,0,0,1,.47-.087,2.1,2.1,0,0,1,.419.046,1.75,1.75,0,0,1,.215.058l.316-1.022a1.984,1.984,0,0,0-.262-.065A2.687,2.687,0,0,0,386.893,337.1Z" transform="translate(-353.995 -335.237)" fill="#fff"/><path d="M461.671,337.1a1.959,1.959,0,0,0-.812.163,1.729,1.729,0,0,0-.608.606v-.642h-.969v4.893h.979v-2.692a1.66,1.66,0,0,1,.087-.557,1.2,1.2,0,0,1,.24-.414.994.994,0,0,1,.368-.255,1.243,1.243,0,0,1,.47-.087,2.1,2.1,0,0,1,.419.046,1.746,1.746,0,0,1,.215.058l.316-1.022a1.985,1.985,0,0,0-.262-.065A2.688,2.688,0,0,0,461.671,337.1Z" transform="translate(-413.933 -335.237)" fill="#fff"/><path d="M480.354,327.719V330.3a1.917,1.917,0,0,0-.633-.524,1.939,1.939,0,0,0-.9-.2,2.386,2.386,0,0,0-1.737.725,2.475,2.475,0,0,0-.521.815,2.922,2.922,0,0,0,0,2.069,2.472,2.472,0,0,0,.521.815,2.386,2.386,0,0,0,1.737.725,1.958,1.958,0,0,0,.9-.194,1.888,1.888,0,0,0,.633-.521v.587h1.068v-6.882Zm-.041,5.059a1.486,1.486,0,0,1-.3.5,1.4,1.4,0,0,1-.465.33,1.589,1.589,0,0,1-1.223-.005,1.378,1.378,0,0,1-.462-.337,1.491,1.491,0,0,1-.291-.5,1.858,1.858,0,0,1,0-1.216,1.492,1.492,0,0,1,.291-.5,1.378,1.378,0,0,1,.462-.337,1.586,1.586,0,0,1,1.223-.005,1.4,1.4,0,0,1,.465.329,1.488,1.488,0,0,1,.3.5,1.862,1.862,0,0,1,0,1.246Z" transform="translate(-427.629 -327.719)" fill="#fff"/><path d="M403.207,338.541a1.438,1.438,0,0,1,.485-.322,1.59,1.59,0,0,1,.608-.115h0a1.9,1.9,0,0,1,.669.115,1.6,1.6,0,0,1,.518.309l.514-.855a2.616,2.616,0,0,0-.651-.378,2.9,2.9,0,0,0-2.1,0,2.538,2.538,0,0,0-.833.541,2.5,2.5,0,0,0-.549.815,2.717,2.717,0,0,0,0,2.043,2.5,2.5,0,0,0,.549.814,2.534,2.534,0,0,0,.833.542,2.9,2.9,0,0,0,2.1,0,2.616,2.616,0,0,0,.651-.378l-.514-.855a1.607,1.607,0,0,1-.518.309,1.9,1.9,0,0,1-.669.115h0a1.59,1.59,0,0,1-.608-.115,1.435,1.435,0,0,1-.485-.322,1.5,1.5,0,0,1-.322-.5,1.779,1.779,0,0,1,0-1.272A1.5,1.5,0,0,1,403.207,338.541Z" transform="translate(-367.754 -335.237)" fill="#fff"/></g><path d="M202.7,368.888v-.252h-.1v-.069h.279v.069h-.1v.252Zm.54,0v-.223l-.072.192h-.08l-.072-.192v.222h-.075v-.321h.108l.08.206.079-.206h.108v.321Z" transform="translate(-93.937 -44.654)" fill="#f78b00"/><g transform="translate(168.742 322.196)"><path d="M506.981,360.031a.382.382,0,0,1,.15.03.393.393,0,0,1,.123.081.378.378,0,0,1,.082.119.369.369,0,0,1,0,.292.385.385,0,0,1-.082.12.391.391,0,0,1-.123.081.385.385,0,0,1-.15.03.4.4,0,0,1-.153-.03.386.386,0,0,1-.123-.081.376.376,0,0,1-.082-.12.372.372,0,0,1,0-.292.369.369,0,0,1,.082-.119.388.388,0,0,1,.123-.081A.393.393,0,0,1,506.981,360.031Zm0,.647a.261.261,0,0,0,.105-.021.274.274,0,0,0,.143-.356.266.266,0,0,0-.057-.086.271.271,0,0,0-.086-.058.261.261,0,0,0-.105-.021.274.274,0,0,0-.194.079.261.261,0,0,0-.058.086.28.28,0,0,0,0,.212.267.267,0,0,0,.058.086.271.271,0,0,0,.086.058A.268.268,0,0,0,506.981,360.678Zm.022-.438a.156.156,0,0,1,.1.031.1.1,0,0,1,.036.082.092.092,0,0,1-.026.066.131.131,0,0,1-.074.035l.1.119h-.112l-.093-.116h-.011v.116h-.094v-.333Zm-.072.081v.061H507a.069.069,0,0,0,.033-.007.025.025,0,0,0,.012-.023.025.025,0,0,0-.012-.023.062.062,0,0,0-.033-.008Z" transform="translate(-506.593 -360.031)" fill="#161615"/></g><path d="M150.372,312.632a7.278,7.278,0,0,0-4.579,1.619,7.569,7.569,0,0,1,0,11.761,7.277,7.277,0,0,0,4.579,1.619,7.5,7.5,0,0,0,0-15Z" transform="translate(-48.314)" fill="#dfdfdf"/></g><g transform="translate(1444.933 6069.482)"><g transform="translate(165.067 51.518)"><path d="M209.58,61.844h-2.538l1.586-9.658h2.538Z" transform="translate(-196.139 -52.012)" fill="#fff"/><path d="M173.878,52.187l-2.42,6.642-.286-1.43h0l-.854-4.343a1.083,1.083,0,0,0-1.2-.87h-4l-.047.163a9.535,9.535,0,0,1,2.655,1.1l2.205,8.39h2.645l4.038-9.658Z" transform="translate(-165.067 -52.013)" fill="#fff"/><path d="M256.42,61.845h2.331l-2.032-9.658h-2.041a1.165,1.165,0,0,0-1.172.72l-3.785,8.938h2.645l.529-1.434h3.227Zm-2.793-3.416,1.334-3.614.75,3.614Z" transform="translate(-227.751 -52.013)" fill="#fff"/><path d="M230,54.014l.362-2.075a7.385,7.385,0,0,0-2.283-.421c-1.26,0-4.251.546-4.251,3.2,0,2.5,3.511,2.527,3.511,3.838s-3.149,1.076-4.188.25l-.378,2.169a7.164,7.164,0,0,0,2.865.546c1.732,0,4.345-.889,4.345-3.307,0-2.512-3.542-2.746-3.542-3.838S228.912,53.421,230,54.014Z" transform="translate(-207.791 -51.518)" fill="#fff"/></g><path d="M171.172,57.449l-.854-4.384a1.086,1.086,0,0,0-1.2-.878h-4l-.047.165a9.841,9.841,0,0,1,3.767,1.892A7.6,7.6,0,0,1,171.172,57.449Z" transform="translate(0 -0.495)" fill="#9a9a9a"/></g><g transform="translate(1570.5 6115)"><path d="M18.5,14.692a11.083,11.083,0,0,1-2.7,4.141,14.153,14.153,0,0,1-5.269,3.078A1.632,1.632,0,0,1,10.02,22H10a1.657,1.657,0,0,1-.314-.031,1.721,1.721,0,0,1-.216-.058A14.153,14.153,0,0,1,4.2,18.835a11.062,11.062,0,0,1-2.7-4.14C.411,11.781.473,8.571.522,5.992v-.04c.01-.213.017-.437.02-.684A2.347,2.347,0,0,1,2.77,2.984,9.24,9.24,0,0,0,9.015.388L9.03.375a1.444,1.444,0,0,1,1.94,0l.014.013a9.242,9.242,0,0,0,6.246,2.6,2.347,2.347,0,0,1,2.227,2.284c0,.249.01.472.02.684v.017C19.528,8.553,19.589,11.769,18.5,14.692Zm0,0" transform="translate(0 0)" fill="#fff"/><path d="M227.315,14.7a11.1,11.1,0,0,1-2.661,4.141,13.93,13.93,0,0,1-5.2,3.078,1.592,1.592,0,0,1-.505.089V0a1.413,1.413,0,0,1,.939.374l.014.013a9.062,9.062,0,0,0,6.164,2.6,2.333,2.333,0,0,1,2.2,2.284c0,.249.01.472.02.684v.017C228.333,8.557,228.394,11.773,227.315,14.7Zm0,0" transform="translate(-208.806 -0.003)" fill="#dfdfdf"/><path d="M102.118,133.886a5.557,5.557,0,0,1-5.592,5.488h-.02a5.489,5.489,0,1,1,0-10.976h.02A5.557,5.557,0,0,1,102.118,133.886Zm0,0" transform="translate(-86.507 -122.886)" fill="#ffba08"/><path d="M224.418,133.886a5.5,5.5,0,0,1-5.469,5.488V128.4A5.5,5.5,0,0,1,224.418,133.886Zm0,0" transform="translate(-208.878 -122.886)" fill="#ffba08"/><path d="M159.435,213.083l-2.472,2.472-.534.534a.647.647,0,0,1-.914,0l-1.148-1.149a.646.646,0,0,1,.914-.914l.692.692,2.549-2.549a.646.646,0,1,1,.914.914Zm0,0" transform="translate(-146.945 -202.873)" fill="#1b1f23"/><path d="M221.421,213.083l-2.472,2.472v-1.828l1.558-1.558a.646.646,0,1,1,.914.914Zm0,0" transform="translate(-208.909 -202.873)" fill="#1b1f23"/></g></g></g></svg>