<svg xmlns="http://www.w3.org/2000/svg" width="25" height="22.227" viewBox="0 0 25 22.227"><g transform="translate(-1.877 -3)"><g transform="translate(1.877 3)"><path d="M6.717,3H1.877V5.47H4.445L5.68,20.287h3a3.071,3.071,0,0,0,2.454,4.939,3.091,3.091,0,0,0,3.087-3.087,3.051,3.051,0,0,0-.633-1.852h2.5a3.071,3.071,0,0,0,2.454,4.939,3.091,3.091,0,0,0,3.087-3.087A3.051,3.051,0,0,0,21,20.287h1.868v-2.47H7.952Zm4.421,19.757a.617.617,0,1,1,.617-.617A.618.618,0,0,1,11.138,22.757Zm7.409,0a.617.617,0,1,1,.617-.617A.618.618,0,0,1,18.547,22.757Z" transform="translate(-1.877 -3)" fill="#1b1f23"/><path d="M7.921,16.583H22.705L25.723,3H6.79ZM22.645,5.47l-1.921,8.644H10.194L9.474,5.47Z" transform="translate(-0.723 -3)" fill="#1b1f23"/></g></g></svg>