<svg xmlns="http://www.w3.org/2000/svg" width="31.945" height="25" viewBox="0 0 31.945 25"><g transform="translate(-339 -1562)"><g transform="translate(338.471 1560.677)"><g transform="translate(0.529 1.323)"><path d="M24.488,289.856v2.273a1.112,1.112,0,0,1-1.141,1.136H18.783a3.434,3.434,0,0,0-3.423,3.409h2.282a1.112,1.112,0,0,1,1.141-1.136h4.563a3.434,3.434,0,0,0,3.423-3.409v-2.273ZM8.515,298.947a7.955,7.955,0,1,0,7.11,11.388h1.751a7.942,7.942,0,1,0,7.11-11.388Zm-1.141,4.545H9.656v2.273h2.282v2.273H9.656v2.273H7.374v-2.273H5.093v-2.273H7.374Zm17.113,0a1.136,1.136,0,1,1-1.141,1.136A1.139,1.139,0,0,1,24.488,303.492Zm-2.282,2.273a1.136,1.136,0,1,1-1.141,1.136A1.139,1.139,0,0,1,22.206,305.765Zm4.563,0a1.136,1.136,0,1,1-1.141,1.136A1.139,1.139,0,0,1,26.769,305.765Zm-2.282,2.273a1.136,1.136,0,1,1-1.141,1.136A1.139,1.139,0,0,1,24.488,308.038Z" transform="translate(-0.529 -289.856)" fill="#1b1f23"/></g></g></g></svg>