<svg xmlns="http://www.w3.org/2000/svg" width="32" height="30" viewBox="0 0 32 30"><g transform="translate(-360 -6347)"><g transform="translate(360 6329.753)"><g transform="translate(12.637 25.229)"><path d="M212.926,144.4h-8.059a1.286,1.286,0,0,0,0,2.572h8.059a1.286,1.286,0,0,0,0-2.572Z" transform="translate(-203.582 -144.402)" fill="#1b1f23"/></g><g transform="translate(12.593 31.386)"><path d="M216.013,242.473H204.868a1.286,1.286,0,0,0,0,2.572h11.145a1.286,1.286,0,0,0,0-2.572Z" transform="translate(-203.582 -242.473)" fill="#1b1f23"/></g><g transform="translate(0 17.247)"><g transform="translate(0 0)"><path d="M30.732,17.247H8.285a1.271,1.271,0,0,0-1.268,1.275V30.547H4.777A4.8,4.8,0,0,0,0,35.349v7.1A4.777,4.777,0,0,0,5.412,47.2H26.336A5.686,5.686,0,0,0,32,41.511V18.522A1.271,1.271,0,0,0,30.732,17.247ZM7.017,42.445a2.253,2.253,0,0,1-1.807,2.21H4.777V44.7a2.249,2.249,0,0,1-2.24-2.252v-7.1A2.249,2.249,0,0,1,4.777,33.1h2.24v9.348Zm22.446-.935a3.178,3.178,0,0,1-3.128,3.144H9.017a4.79,4.79,0,0,0,.536-2.21V19.8h19.91V41.51Z" transform="translate(0 -17.247)" fill="#1b1f23"/></g></g><g transform="translate(12.637 37.16)"><path d="M212.926,334.464h-8.059a1.286,1.286,0,1,0,0,2.572h8.059a1.286,1.286,0,1,0,0-2.572Z" transform="translate(-203.582 -334.464)" fill="#1b1f23"/></g></g></g></svg>