<svg xmlns="http://www.w3.org/2000/svg" width="18.679" height="29.275" viewBox="0 0 18.679 29.275"><g transform="translate(-24.4 -9.8)"><g transform="translate(24.4 9.8)"><path d="M33.721,42.3A9.358,9.358,0,0,0,24.4,51.621v5.1h2.658v3.022H40.421V56.719h2.658v-5.1A9.358,9.358,0,0,0,33.721,42.3ZM40.13,53.806H37.508v3.022H29.935V53.806H27.313V51.621a6.408,6.408,0,1,1,12.817,0Z" transform="translate(-24.4 -30.466)" fill="#1b1f23"/><path d="M40.271,20.942A5.571,5.571,0,1,0,34.7,15.371a5.571,5.571,0,0,0,5.571,5.571Zm0-8.229a2.658,2.658,0,1,1-2.658,2.658,2.658,2.658,0,0,1,2.658-2.658Z" transform="translate(-30.95 -9.8)" fill="#1b1f23"/></g></g></svg>