<svg xmlns="http://www.w3.org/2000/svg" width="29.471" height="26.201" viewBox="0 0 29.471 26.201"><g transform="translate(-255 -462)"><g transform="translate(255 462)"><path d="M7.583,3H1.877V5.911H4.9L6.36,23.379H9.9A3.62,3.62,0,0,0,12.794,29.2a3.643,3.643,0,0,0,3.639-3.639,3.6,3.6,0,0,0-.747-2.183h2.948A3.62,3.62,0,0,0,21.526,29.2a3.643,3.643,0,0,0,3.639-3.639,3.6,3.6,0,0,0-.747-2.183h2.2V20.467H9.039Zm5.211,23.29a.728.728,0,1,1,.728-.728A.729.729,0,0,1,12.794,26.29Zm8.734,0a.728.728,0,1,1,.728-.728A.729.729,0,0,1,21.528,26.29Z" transform="translate(-1.877 -3)" fill="#fff"/><path d="M8.123,19.012H25.552L29.109,3H6.79ZM25.48,5.911,23.215,16.1H10.8L9.955,5.911Z" transform="translate(0.361 -3)" fill="#fff"/></g></g></svg>